<?xml version="1.0" standalone="no"?>
<svg viewBox="0 0 200 200" xmlns="http://www.w3.org/2000/svg">
  <path fill="#D0E2FF" d="M25.9,-36.9C35.2,-39.5,45.4,-35.8,54.8,-28.6C64.2,-21.4,72.9,-10.7,74.4,0.9C76,12.5,70.5,25,59.3,29.2C48.1,33.4,31.4,29.3,20.6,35.5C9.7,41.6,4.9,57.9,0.5,57.1C-3.8,56.2,-7.7,38.1,-9.9,26.9C-12,15.8,-12.5,11.7,-10.9,8.3C-9.3,5,-5.6,2.5,-12.7,-4.1C-19.9,-10.7,-37.9,-21.5,-38.9,-23.9C-40,-26.3,-24.2,-20.4,-14.9,-17.8C-5.6,-15.2,-2.8,-15.8,2.8,-20.6C8.3,-25.4,16.6,-34.3,25.9,-36.9Z" transform="translate(100 100)" />
</svg>
